<?xml version="1.0" encoding="utf-8"?>
<!-- Generator: Adobe Illustrator 20.1.0, SVG Export Plug-In . SVG Version: 6.00 Build 0)  -->
<svg version="1.1" id="Layer_1" xmlns="http://www.w3.org/2000/svg" xmlns:xlink="http://www.w3.org/1999/xlink" x="0px" y="0px"
	 viewBox="0 0 498.6 500" style="enable-background:new 0 0 498.6 500;" xml:space="preserve">
<style type="text/css">
	.st0{fill:#EF6262;stroke:#FFFFFF;stroke-width:10;stroke-miterlimit:10;}
	.st1{fill:#E0BE4F;stroke:#FFFFFF;stroke-width:10;stroke-miterlimit:10;}
	.st2{fill:#4C4242;stroke:#FFFFFF;stroke-width:10;stroke-miterlimit:10;}
</style>
<g>
	<g>
		<g>
			<g>
				<path class="st0" d="M248.6,250L80.2,81.6c46.5-46.5,102.7-69.8,168.4-69.8V250z"/>
			</g>
		</g>
		<g>
			<g>
				<path class="st0" d="M248.6,250H10.5c0-65.8,23.3-121.9,69.8-168.4L248.6,250z"/>
			</g>
		</g>
		<g>
			<g>
				<path class="st1" d="M248.6,250L80.2,418.4C33.7,371.9,10.5,315.8,10.5,250H248.6z"/>
			</g>
		</g>
		<g>
			<g>
				<path class="st1" d="M248.6,250v238.2c-65.8,0-121.9-23.3-168.4-69.8L248.6,250z"/>
			</g>
		</g>
		<g>
			<g>
				<path class="st2" d="M248.6,250l168.4,168.4c-46.5,46.5-102.7,69.8-168.4,69.8V250z"/>
			</g>
		</g>
		<g>
			<g>
				<path class="st2" d="M248.6,250h238.2c0,65.8-23.3,121.9-69.8,168.4L248.6,250z"/>
			</g>
		</g>
	</g>
	<g>
		<g>
		</g>
		<g>
		</g>
		<g>
		</g>
		<g>
		</g>
		<g>
		</g>
		<g>
		</g>
		<g>
		</g>
		<g>
		</g>
	</g>
</g>
</svg>
