<?xml version="1.0" encoding="utf-8"?>
<!-- Generator: Adobe Illustrator 20.1.0, SVG Export Plug-In . SVG Version: 6.00 Build 0)  -->
<svg version="1.1" xmlns="http://www.w3.org/2000/svg" xmlns:xlink="http://www.w3.org/1999/xlink" x="0px" y="0px"
	 viewBox="0 0 197.8 226.4" style="enable-background:new 0 0 197.8 226.4;" xml:space="preserve">
<style type="text/css">
	.st0{fill:#FFFFFF;}
	.st1{fill:#4C4242;}
	.st2{fill:#549400;}
	.st3{fill:#519E4F;}
</style>
<g id="Layer_1">
	<g>
		<path class="st0" d="M98.9,216.6c-49,0-88.9-39.9-88.9-88.9c0-49,39.9-88.9,88.9-88.9s88.9,39.9,88.9,88.9
			C187.8,176.7,147.9,216.6,98.9,216.6z M98.9,39.1c-48.9,0-88.6,39.8-88.6,88.6s39.8,88.6,88.6,88.6c48.9,0,88.6-39.8,88.6-88.6
			S147.8,39.1,98.9,39.1z"/>
		<path class="st1" d="M98.9,28.8C44.3,28.8,0,73.1,0,127.7c0,54.6,44.3,98.9,98.9,98.9s98.9-44.3,98.9-98.9
			C197.8,73.1,153.6,28.8,98.9,28.8L98.9,28.8z M98.9,206.3c-43.4,0-78.6-35.2-78.6-78.6s35.2-78.6,78.6-78.6s78.6,35.2,78.6,78.6
			S142.3,206.3,98.9,206.3L98.9,206.3z"/>
	</g>
</g>
<g id="Layer_2">
	<g>
		<rect x="69.3" y="5.4" class="st0" width="59.3" height="9.3"/>
		<polygon class="st1" points="133.9,0 63.9,0 63.9,20 133.9,20 133.9,0 		"/>
	</g>
	<g>
		<rect x="93.9" y="5.6" class="st0" width="10" height="28.9"/>
		<polygon class="st1" points="103.9,5.6 93.9,5.6 93.9,34.4 103.9,34.4 103.9,5.6 		"/>
	</g>
</g>
<g id="Layer_3">
	<path class="st2" d="M98.9,139.1c-15.5-22.5-1-61,0-69.5C101.9,78.1,114.9,118.1,98.9,139.1z"/>
	<path class="st3" d="M98.9,69.6c3,8.5,19.5,52.9,0,69.5C79.9,122.3,97.9,78.1,98.9,69.6"/>
</g>
</svg>
