<?xml version="1.0" encoding="utf-8"?>
<!-- Generator: Adobe Illustrator 16.0.0, SVG Export Plug-In . SVG Version: 6.00 Build 0)  -->
<!DOCTYPE svg PUBLIC "-//W3C//DTD SVG 1.1//EN" "http://www.w3.org/Graphics/SVG/1.1/DTD/svg11.dtd">
<svg version="1.1" id="Layer_1" xmlns="http://www.w3.org/2000/svg" xmlns:xlink="http://www.w3.org/1999/xlink" x="0px" y="0px"
	 width="659px" height="197px" viewBox="0 0 659 197" enable-background="new 0 0 659 197" xml:space="preserve">
<g>
	<path fill="#80BB3D" d="M251.509,98.401c0,53.366-55.905,96.629-124.862,96.629c-68.961,0-124.863-43.263-124.863-96.629
		c0-53.366,55.902-96.629,124.863-96.629C195.604,1.772,251.509,45.036,251.509,98.401z"/>
	<path fill="#FFFFFF" d="M237.559,98.223c-0.07-45.658-49.785-82.595-111.039-82.501c-16.604,0.025-32.349,2.771-46.482,7.667
		c-11.991-1.478-23.779,3.235-23.779,3.235s8.597,13.889,21.505,18.966c9.073,3.569,19.314,0.566,21.107-1.129
		c0.002-0.001-3.522-7.191-14.9-12.225c-4.403-1.946-10.487-3.701-17.24-4.653c4.548,0.391,8.407-0.101,17.592,2.824
		c12.787,4.073,16.163,11.706,16.163,11.706c0.733-7.191-4.083-12.27-8.823-14.993c10.896-2.842,22.631-4.404,34.863-4.422
		c57.401-0.089,103.987,33.735,104.05,75.545c0.021,12.941-4.42,25.131-12.264,35.798c-0.137-0.135-5.251-5.365-11.509-9.938
		c2.815-16.85-9.577-32.511-23.062-40.239c6.183-19.671-12.816-39.764-47.236-40.483c-5.123-0.04-12.133,0.224-16.696,0.715
		l1.912-12.154l-2.726,0.004c-9.551,0.078-13.1,6.195-14.131,8.596l-3.689,7.097C79.766,53.58,68.022,63.74,66.972,64.646
		c-2.477,2.139-1.967,3.062,2.445,1.237c7.875-3.259,17.039-6.186,26.644-8.409l-28.882,53.146
		c-15.452-1.768-31.569,0.045-39.723,10.518c-3.069-7.129-4.736-14.71-4.747-22.579C22.671,74.341,38.252,52.755,62.527,38.86
		c-6.143-4.004-11.705-0.752-13.453,0.502c-0.048,0.034-0.047,0.036-0.096,0.065c-20.547,15.039-33.28,35.984-33.245,59.133
		c0.017,10.823,2.826,21.152,7.913,30.616c-0.623,3.263-0.26,7.108,2.642,10.817c3.904,4.988,11.722,7.193,20.864,3.995
		c12.34-4.311,21.825-17.836,24.84-22.742c-8.912-1.459-12.437,1.783-13.695,3.462c-3.636,4.847-8.981,10.291-14.582,12.694
		c-11.465,4.916-18.883-5.457-9.829-13.806c6.13-5.655,18.292-6.832,29.261-5.449c0,0,0.27,0.001,0.269,0.001
		c13.862,1.831,24.551,6.024,26.874,6.97c-2.127,12.503-3.624,20.493-3.624,20.493l4.083,0.051
		c13.34-0.006,14.512-9.968,14.512-9.968c0.02,0.018,0.686-3.505,0.686-3.505c12.232,6.011,24.129,12.431,24.734,12.787
		c3.131,1.722,7.66,1.623,8.361-2.927l5.182-35.273c13.566-0.791,26.891-6.075,34.001-13.791
		c6.189,4.856,11.916,12.595,13.008,21.959c-7.573-3.291-16.138-5.256-24.931-3.893c-20.37,3.155-27.493,24.106-16.291,35.993
		c8.404,8.919,20.458,9.889,33.423,4.989c6.842-2.586,13.582-7.654,18.186-14.818c-0.97-0.984-2.81-2.717-4.899-4.004
		c-5.721-3.521-9.962,0.469-11.194,1.867c-3.63,4.546-8.599,7.869-13.798,9.14c-23.694,5.785-25.928-25.24-1.641-26.171
		c7.68-0.295,14.443,2.983,20.398,7.296c-0.002,0.003-0.004,0.009-0.004,0.012c6.149,4.618,14.593,13.171,18.807,16.107
		c8.982,6.258,17.734,3.502,17.734,3.502s-1.513-2.493-4.029-5.669C232.277,127.188,237.58,113.165,237.559,98.223z M91.961,115.671
		c-4.603-1.48-13.219-3.27-15.012-3.627L99.721,70.02C97.344,84.021,94.398,101.329,91.961,115.671z M145.316,99.351l2.096-14.262
		c-15.731,0.121-17.991,10.879-18.25,12.58c-7.527-3.63-1.136-11.45,9.451-13.455c11.724-2.222,22.852,0.399,29.562,3.155
		C164.402,94.315,156.062,98.454,145.316,99.351z M170.904,78.913c-5.963-1.561-13.912-2.975-22.201-2.679l2.783-18.942
		c-16.767-2.827-17.68,8.448-17.68,8.448c-0.596,4.046-1.277,8.668-2.002,13.575c-15.568,6.029-17.053,19.923-3.737,25.333
		c-1.345,9.113-3.431,23.219-3.462,23.197c-4.33-1.89-13.033-5.446-16.903-6.874l10.57-67.177
		C163.576,49.098,172.427,69.957,170.904,78.913z M202.795,149.868l-0.018,0.014c-18.869,14.838-46.184,24.18-76.02,24.225
		c-29.631,0.045-56.377-9.035-75.334-23.41c-1.872-1.418-6.619-4.635-12.586-1.734c20.311,19.572,52.153,32.155,87.936,32.1
		c35.909-0.054,67.812-12.825,88.053-32.58C209.118,145.658,204.133,148.866,202.795,149.868z"/>
</g>
<g>
	<g>
		<path fill="#4B721D" d="M508.415,22.038c-6.487,0-8.938,2.602-11.247,8.142c-3.283,9.723-6.354,18.792-6.984,20.657
			c-0.999-2.321-7.131-16.522-12.431-28.799h-20.049c9.215,19.696,22.601,48.331,23.699,50.679
			c-0.401,0.923-0.699,1.635-0.699,1.635c-1.789,3.997-5.455,4.538-8.622,4.538l-7.199-0.163l-1.733,12.946
			c4.222,1.155,8.576,1.617,13.465,1.617c8.207,0,14.466-3.722,17.726-10.481l3.819-8.059c0.733-1.563,1.469-3.232,2.163-5.006
			l18.971-47.707H508.415z"/>
		<path fill="#4B721D" d="M433.533,47.167c0,0-8.895,0-10.593,0V36.372h22.319c5.28-0.229,8.256-3.134,8.256-8.345l0.01,0.021
			v-6.156h-38.098c-7.859,0.163-11.479,5.101-11.479,10.893v59.461h30.987c19.003,0,25.751-12.143,25.751-22.539
			C460.687,58.489,452.291,47.167,433.533,47.167z M428.313,77.766c0,0-3.804,0-5.373,0V61.648c1.636,0,7.679,0,7.679,0
			c6.541-0.012,10.066,3.526,10.066,7.858C440.686,73.053,439.406,77.766,428.313,77.766z"/>
		<path fill="#4B721D" d="M607.945,64.824c0.812-2.157,7.302-19.355,8.666-22.977c1.488,3.579,8.624,20.775,9.538,22.977H607.945z
			 M563.001,56.373c2.131-1.981,4.58-5.596,6.234-9.347c0.006-0.002,2.512-5.721,2.512-5.721c1.785-3.995,5.264-4.536,8.437-4.536
			h0.451l1.912-14.266l-1.194-0.198c-2.412-0.419-4.446-0.614-6.382-0.614c-8.169,0-14.466,3.719-17.728,10.478l-4.416,9.334
			c-2.351,5.027-5.27,7.172-9.758,7.172c0,0-2.693,0-3.938,0c0-1.805,0-26.785,0-26.785h-7.54
			c-7.733,0.161-11.348,4.947-11.454,10.62v59.733h18.994c0,0,0-27.277,0-29.092c1.074,0,2.837,0,2.837,0
			c6.172,0,11.337,4.468,15.366,13.277c0,0.003,7.284,15.815,7.284,15.815h32.965c0,0,4.686-12.401,5.112-13.544h29.28
			c0.451,1.094,5.614,13.544,5.614,13.544h20.497l-31.252-70.354h-13.076c-6.676,0-9.079,2.735-11.456,8.628v-0.002l-21.118,52.386
			l-4.943-10.112C572.175,64.427,567.723,58.932,563.001,56.373z"/>
		<path fill="#4B721D" d="M387.198,54.595c4.815-2.302,10.596-7.667,10.596-15.577c0-12.224-14.296-17.696-28.453-17.696
			c-6.62,0-14.203,1.217-23.05,3.63l1.633,14.896c0,0,9.114-2.724,14.145-3.154c10.376-0.885,14.874,2.248,14.874,6.01
			c0,1.707,0,6.905-13.774,6.905h-6.645v14.376h5.545c11.133,0,15.274,1.762,15.274,6.507c0,4.715-4.741,7.27-14.077,7.105
			c-5.116,0-10.543-0.632-15.415-1.767c0.198,0.753,1.321,4.898,3.096,8.577c1.253,2.599,4.05,7.628,9.579,8.21
			c0,0,3.979,0.433,7.119,0.352c19.41-0.508,30.553-7.685,30.553-21.085C398.197,62.708,392.889,57.915,387.198,54.595z"/>
		<path fill="#4B721D" d="M318.113,21.894H305.02c-6.33,0-8.815,2.487-11.08,7.761l-25.238,62.59h20.158
			c0,0,4.689-12.401,5.117-13.542h29.275c0.456,1.092,5.619,13.542,5.619,13.542h20.5L318.113,21.894z M299.229,64.824
			c0.813-2.157,7.299-19.354,8.669-22.977c1.487,3.579,8.622,20.775,9.534,22.977H299.229z"/>
	</g>
	<g>
		<path fill="#4B721D" d="M335.112,136.644c4.995-3.149,7.923-8.027,7.923-13.409c0-8.727-7.398-18.121-23.643-18.121h-19.156
			c-7.45,0.156-11.045,4.602-11.402,10.001v60.349h34.275c23.33,0,25.143-16.099,25.143-21.035
			C348.252,146.029,343.357,139.545,335.112,136.644z M307.827,119.589c1.541,0,7.958,0,7.958,0c5.727,0,7.756,3.37,7.756,6.254
			c0,2.976-2.029,6.452-7.756,6.452c0,0-6.417,0-7.958,0V119.589z M316.488,160.985c0,0-7.093,0-8.661,0v-14.212
			c1.634,0,10.97,0,10.97,0c4.573,0,9.463,1.774,9.463,6.754C328.26,158.25,326.333,160.985,316.488,160.985z"/>
		<path fill="#4B721D" d="M582.142,105.224h-13.096c-6.327,0-8.812,2.49-11.079,7.761l-25.235,62.592h20.158
			c0,0,4.689-12.403,5.119-13.544h29.268c0.462,1.094,5.623,13.544,5.623,13.544h20.499L582.142,105.224z M563.256,148.155
			c0.816-2.156,7.299-19.355,8.671-22.978c1.486,3.582,8.624,20.774,9.536,22.978H563.256z"/>
		<path fill="#4B721D" d="M471.101,105.226c-6.483,0-8.934,2.601-11.245,8.14c-3.282,9.722-6.355,18.792-6.982,20.656
			c-1.002-2.32-9.098-16.882-14.302-28.939h-19.692c9.047,19.345,24.113,48.473,25.212,50.82c-0.403,0.923-0.698,1.636-0.698,1.636
			c-1.791,3.996-5.456,4.537-8.625,4.537l-7.199-0.163l-1.733,12.945c4.225,1.155,8.577,1.616,13.466,1.616
			c8.207,0,14.465-3.72,17.728-10.479l3.815-8.059c0.737-1.563,1.469-3.231,2.168-5.006l18.97-47.705H471.101z"/>
		<path fill="#4B721D" d="M414.541,120.104l1.91-14.268l-1.188-0.196c-2.418-0.421-4.453-0.615-6.389-0.615
			c-8.168,0-14.464,3.72-17.729,10.479l-4.414,9.336c-2.351,5.023-5.267,7.167-9.754,7.167c0,0-2.695,0-3.945,0
			c0-1.803,0-26.781,0-26.781h-7.53c-7.794,0.164-11.407,5.022-11.464,10.756v59.595h18.994c0,0,0-27.276,0-29.09
			c1.077,0,2.842,0,2.842,0c6.171,0,11.337,4.468,15.367,13.275c0,0.002,7.283,15.814,7.283,15.814h21.135l-9.508-19.455
			c-4.072-8.362-8.524-13.856-13.248-16.418c2.135-1.98,4.582-5.594,6.236-9.345c0.004-0.004,2.511-5.722,2.511-5.722
			c1.789-3.994,5.267-4.534,8.44-4.534H414.541z"/>
		<path fill="#4B721D" d="M531.68,166.763c1.605-4.327,2.953-10.376,2.949-10.356c-5.143,2.015-11.301,4.69-20.07,4.491
			c-13.269,0-20.266-9.305-20.266-20.515c0-10.964,7.246-20.716,19.871-20.716c6.861,0,13.014,1.881,20.575,6.296l0.733,0.426
			v-17.476c-8.122-3.249-14.713-4.708-21.168-4.708c-10.638,0-20.348,3.716-27.348,10.467c-7.037,6.783-10.913,16.205-10.913,26.528
			c0,8.15,3.396,16.816,9.09,23.184c4.895,5.478,13.835,12.004,28.629,12.004c3.191,0,5.458-0.09,8.296-0.691
			C527.004,174.645,530.076,171.087,531.68,166.763z"/>
	</g>
</g>
</svg>
